<svg width="21" height="20" viewBox="0 0 21 20" fill="white" xmlns="http://www.w3.org/2000/svg">
<g clip-path="url(#clip0_148_3426)">
<path d="M11.1243 2.29175V3.75008H12.7701C13.0626 3.75008 13.3484 3.83841 13.5901 4.00258L15.0043 4.96425C15.0384 4.98758 15.0793 5.00008 15.1209 5.00008H18.5393C18.705 5.00008 18.864 5.06593 18.9812 5.18314C19.0984 5.30035 19.1643 5.45932 19.1643 5.62508C19.1643 5.79084 19.0984 5.94981 18.9812 6.06702C18.864 6.18423 18.705 6.25008 18.5393 6.25008H17.2243L20.0293 12.6501C20.0855 12.778 20.0972 12.9212 20.0625 13.0565C20.0277 13.1919 19.9485 13.3117 19.8376 13.3967C19.7543 13.4584 19.6684 13.5159 19.5793 13.5684C19.3679 13.6946 19.1479 13.8057 18.9209 13.9009C18.1672 14.2161 17.3579 14.3774 16.5409 14.3751C15.7242 14.3777 14.9153 14.2167 14.1618 13.9017C13.9347 13.8065 13.7146 13.6951 13.5034 13.5684C13.415 13.5172 13.3296 13.461 13.2476 13.4001L13.2434 13.3967C13.1325 13.3117 13.0533 13.1919 13.0185 13.0565C12.9838 12.9212 12.9955 12.778 13.0518 12.6501L15.8584 6.25008H15.1201C14.8276 6.25008 14.5418 6.16175 14.3001 5.99758L12.8859 5.03591C12.8516 5.0124 12.8109 4.9999 12.7693 5.00008H11.1243V17.0834H14.8634C15.0292 17.0834 15.1882 17.1493 15.3054 17.2665C15.4226 17.3837 15.4884 17.5427 15.4884 17.7084C15.4884 17.8742 15.4226 18.0331 15.3054 18.1504C15.1882 18.2676 15.0292 18.3334 14.8634 18.3334H6.13509C5.96933 18.3334 5.81036 18.2676 5.69315 18.1504C5.57594 18.0331 5.51009 17.8742 5.51009 17.7084C5.51009 17.5427 5.57594 17.3837 5.69315 17.2665C5.81036 17.1493 5.96933 17.0834 6.13509 17.0834H9.87426V5.00008H8.22842C8.18682 5.00006 8.14617 5.01255 8.11176 5.03591L6.69842 5.99758C6.45676 6.16175 6.17092 6.25008 5.87842 6.25008H5.14009L7.94676 12.6501C8.00108 12.7744 8.01347 12.913 7.98205 13.045C7.95063 13.177 7.87711 13.2952 7.77259 13.3817C7.70592 13.4359 7.63926 13.4867 7.51426 13.5676C7.30351 13.7041 7.0829 13.8247 6.85426 13.9284C6.1016 14.2703 5.28427 14.4465 4.45759 14.4451C3.63088 14.4468 2.81349 14.2706 2.06092 13.9284C1.83228 13.8247 1.61167 13.7041 1.40092 13.5676C1.3118 13.5109 1.22584 13.4494 1.14342 13.3834C1.03974 13.2959 0.966805 13.1775 0.935312 13.0455C0.90382 12.9136 0.915424 12.775 0.968423 12.6501L3.77426 6.25008H2.46009C2.29433 6.25008 2.13536 6.18423 2.01815 6.06702C1.90094 5.94981 1.83509 5.79084 1.83509 5.62508C1.83509 5.45932 1.90094 5.30035 2.01815 5.18314C2.13536 5.06593 2.29433 5.00008 2.46009 5.00008H5.87842C5.92009 5.00008 5.96092 4.98758 5.99592 4.96425L7.40842 4.00258C7.65009 3.83758 7.93676 3.75008 8.22926 3.75008H9.87426V2.29175C9.87426 2.12599 9.9401 1.96702 10.0573 1.84981C10.1745 1.7326 10.3335 1.66675 10.4993 1.66675C10.665 1.66675 10.824 1.7326 10.9412 1.84981C11.0584 1.96702 11.1243 2.12599 11.1243 2.29175ZM2.32676 12.6651C2.98262 13.0142 3.71457 13.196 4.45759 13.1942C5.2006 13.196 5.93256 13.0142 6.58842 12.6651L4.45759 7.80675L2.32676 12.6651ZM14.4184 12.6451C14.4868 12.6784 14.5634 12.7142 14.6476 12.7501C15.0893 12.9359 15.7351 13.1251 16.5409 13.1251C17.2756 13.1271 18.0012 12.963 18.6634 12.6451L16.5409 7.80591L14.4184 12.6451Z" fill="#00556B"/>
</g>
<defs>
<clipPath id="clip0_148_3426">
<rect width="20" height="20" fill="white" transform="translate(0.5)"/>
</clipPath>
</defs>
</svg>
