<svg width="24" height="20" viewBox="0 0 24 20" fill="none" xmlns="http://www.w3.org/2000/svg">
<path d="M18.2204 16.8148H18.0658C17.9853 16.8148 17.9081 16.7828 17.8511 16.7259C17.7942 16.6689 17.7622 16.5917 17.7622 16.5112C17.7671 15.9349 17.6537 15.3638 17.4291 14.833C16.9311 13.7387 16.054 12.8616 14.9597 12.3636C14.4288 12.1397 13.8578 12.0264 13.2816 12.0305C13.2017 12.0301 13.1252 11.9981 13.0687 11.9416C13.0122 11.8851 12.9803 11.8087 12.9798 11.7288V11.5724C12.9798 11.4923 13.0116 11.4156 13.0682 11.359C13.1248 11.3024 13.2015 11.2706 13.2816 11.2706C13.858 11.275 14.4292 11.161 14.9597 10.9357C15.5063 10.6954 16.0017 10.3525 16.4189 9.92548C16.8452 9.50688 17.188 9.01106 17.4291 8.46444C17.6537 7.93433 17.767 7.36379 17.7622 6.78811C17.7627 6.70791 17.7949 6.63115 17.8518 6.57461C17.9087 6.51807 17.9856 6.48634 18.0658 6.48634H18.2204C18.3006 6.48634 18.3775 6.51807 18.4344 6.57461C18.4913 6.63115 18.5235 6.70791 18.524 6.78811C18.5192 7.36378 18.6326 7.93431 18.8571 8.46444C19.0969 9.01125 19.4399 9.5067 19.8673 9.92364C20.2841 10.3512 20.7795 10.6942 21.3265 10.9338C21.857 11.1592 22.4282 11.2732 23.0046 11.2687C23.0847 11.2687 23.1614 11.3005 23.218 11.3571C23.2746 11.4137 23.3064 11.4905 23.3064 11.5705V11.7269C23.3059 11.8068 23.274 11.8833 23.2175 11.9398C23.161 11.9963 23.0845 12.0282 23.0046 12.0287C22.4284 12.0246 21.8574 12.1379 21.3265 12.3618C20.2319 12.8602 19.3547 13.7381 18.8571 14.833C18.6329 15.3639 18.5196 15.9349 18.524 16.5112C18.524 16.5511 18.5161 16.5905 18.5009 16.6274C18.4856 16.6642 18.4633 16.6977 18.4351 16.7259C18.4069 16.7541 18.3734 16.7764 18.3366 16.7917C18.2997 16.8069 18.2603 16.8148 18.2204 16.8148ZM6.88355 12.1906H6.69954C6.61966 12.1897 6.54338 12.1573 6.48723 12.1004C6.43109 12.0436 6.3996 11.9669 6.39961 11.887C6.40503 11.192 6.26853 10.5033 5.99847 9.86291C5.70889 9.20544 5.29601 8.60954 4.78217 8.10746C4.27976 7.594 3.68394 7.18117 3.02671 6.89116C2.38628 6.62129 1.69756 6.4848 1.00261 6.49002C0.962736 6.4905 0.923159 6.48313 0.886136 6.46832C0.849114 6.45351 0.815371 6.43155 0.786835 6.4037C0.7583 6.37585 0.73553 6.34265 0.719826 6.30599C0.704123 6.26934 0.695793 6.22995 0.695312 6.19008V6.00607C0.695795 5.92619 0.727744 5.84971 0.784234 5.79322C0.840724 5.73673 0.917201 5.70478 0.997088 5.7043C1.69224 5.70976 2.38114 5.57261 3.02119 5.30132C3.67905 5.01242 4.27507 4.59946 4.77664 4.08501C5.28989 3.58031 5.70264 2.98273 5.99295 2.32404C6.26501 1.68474 6.4034 0.996545 6.39961 0.301776C6.40008 0.222518 6.43152 0.146585 6.48722 0.090198C6.54292 0.0338107 6.61846 0.00143969 6.6977 0L6.88171 0C6.9616 0.000482714 7.03808 0.0324318 7.09457 0.0889215C7.15106 0.145411 7.18301 0.221889 7.18349 0.301776C7.17755 0.996977 7.31472 1.68596 7.58647 2.32588C7.87421 2.98392 8.28662 3.58004 8.80093 4.08133C9.30236 4.59595 9.89842 5.00894 10.5564 5.29764C11.1964 5.56903 11.8853 5.70619 12.5805 5.70062C12.6203 5.70037 12.6597 5.708 12.6965 5.72306C12.7334 5.73811 12.7669 5.7603 12.7951 5.78835C12.8233 5.8164 12.8457 5.84975 12.861 5.88648C12.8762 5.92321 12.8841 5.96261 12.8841 6.00239V6.1864C12.8841 6.22627 12.8763 6.26575 12.861 6.30259C12.8457 6.33943 12.8234 6.3729 12.7952 6.40109C12.767 6.42928 12.7335 6.45165 12.6967 6.46691C12.6598 6.48216 12.6204 6.49002 12.5805 6.49002C11.8855 6.48475 11.1968 6.62124 10.5564 6.89116C9.24005 7.49091 8.18561 8.5473 7.58831 9.86475C7.31691 10.5048 7.17976 11.1937 7.18533 11.8889C7.18533 11.9691 7.1536 12.046 7.09705 12.1029C7.04051 12.1598 6.96376 12.192 6.88355 12.1925V12.1906ZM6.54682 9.62922C6.64304 9.85294 6.72419 10.0829 6.78971 10.3174C6.85523 10.0829 6.93637 9.85294 7.0326 9.62922C7.68987 8.16608 8.86028 6.99435 10.3227 6.33545C10.5465 6.23982 10.7764 6.15929 11.0109 6.0944C10.7766 6.02805 10.5467 5.94692 10.3227 5.8515C9.59412 5.5328 8.93377 5.07673 8.37771 4.50823C7.80786 3.95222 7.35108 3.29111 7.0326 2.56141C6.93555 2.33675 6.85439 2.10556 6.78971 1.86954C6.72446 2.10359 6.64331 2.3329 6.54682 2.55589C6.22848 3.2863 5.77242 3.94853 5.20355 4.50639C4.64745 5.07662 3.98639 5.53399 3.25673 5.85334C3.03217 5.94905 2.80168 6.03018 2.56669 6.09624C2.8022 6.16064 3.0328 6.24181 3.25673 6.33913C3.98593 6.6567 4.64649 7.1129 5.20171 7.6824C5.77195 8.23808 6.22879 8.89928 6.54682 9.62922ZM9.25544 20H9.15975C9.07972 20 9.00296 19.9682 8.94636 19.9116C8.88977 19.855 8.85798 19.7783 8.85798 19.6982C8.86062 19.3577 8.79362 19.0201 8.66109 18.7064C8.36506 18.0535 7.84192 17.5304 7.18901 17.2343C6.87459 17.102 6.53651 17.035 6.19536 17.0374C6.11753 17.0365 6.04306 17.0056 5.98751 16.9511C5.93197 16.8965 5.89963 16.8227 5.89726 16.7449V16.6455C5.89726 16.5655 5.92906 16.4887 5.98565 16.4321C6.04224 16.3755 6.119 16.3437 6.19904 16.3437C6.53961 16.3464 6.87712 16.2794 7.19085 16.1468C7.84444 15.8518 8.36788 15.3284 8.66293 14.6748C8.79511 14.3616 8.86211 14.0247 8.85982 13.6848C8.85981 13.6049 8.89129 13.5282 8.94744 13.4714C9.00358 13.4146 9.07987 13.3821 9.15975 13.3812H9.25728C9.33731 13.3812 9.41407 13.413 9.47066 13.4696C9.52726 13.5262 9.55905 13.6029 9.55905 13.683C9.55627 14.0243 9.62392 14.3626 9.75778 14.6766C10.0528 15.3302 10.5763 15.8536 11.2299 16.1487C11.5439 16.2823 11.8822 16.3493 12.2235 16.3456C12.2633 16.3456 12.3027 16.3534 12.3394 16.3687C12.3762 16.384 12.4095 16.4064 12.4376 16.4346C12.4656 16.4628 12.4878 16.4963 12.5028 16.5331C12.5179 16.57 12.5255 16.6094 12.5253 16.6492V16.7449C12.5253 16.8249 12.4935 16.9017 12.4369 16.9583C12.3803 17.0149 12.3035 17.0466 12.2235 17.0466C11.8824 17.0442 11.5443 17.1112 11.2299 17.2435C10.9024 17.3875 10.6057 17.593 10.3558 17.8489L10.3411 17.8636C10.0931 18.1064 9.89386 18.3943 9.7541 18.7119C9.62152 19.0263 9.55453 19.3644 9.55721 19.7056C9.55746 19.7453 9.54982 19.7846 9.53474 19.8214C9.51966 19.8581 9.49744 19.8914 9.46937 19.9195C9.4413 19.9476 9.40793 19.9698 9.37121 19.9849C9.33449 20 9.29514 20.0076 9.25544 20.0074V20ZM8.48444 17.4128C8.78881 17.7096 9.03364 18.0619 9.20576 18.4506C9.3766 18.0693 9.61682 17.723 9.91419 17.4294L9.92891 17.4128C10.2273 17.1087 10.5808 16.8639 10.9704 16.6915C10.1887 16.3362 9.5619 15.71 9.20576 14.9287C9.03321 15.3172 8.78843 15.6694 8.48444 15.9665C8.18654 16.2709 7.8338 16.5163 7.44478 16.6897C7.8338 16.8631 8.18654 17.1084 8.48444 17.4128ZM17.9922 14.5975C18.0511 14.7373 18.1045 14.879 18.1505 15.0244C18.1965 14.879 18.2498 14.7373 18.3087 14.5975C18.8656 13.3585 19.8574 12.3666 21.0965 11.8097C21.2381 11.749 21.3798 11.6956 21.5252 11.6496C21.3795 11.6048 21.2363 11.552 21.0965 11.4914C20.4765 11.2223 19.9142 10.8362 19.4404 10.3542C18.9578 9.88012 18.5705 9.31796 18.2995 8.69813C18.2406 8.55645 18.1873 8.41476 18.1413 8.26939C18.0953 8.41292 18.0419 8.5546 17.983 8.69445C17.7129 9.31433 17.3262 9.87655 16.844 10.3505C16.3703 10.8336 15.8081 11.221 15.1879 11.4914C15.0462 11.5503 14.9045 11.6036 14.7592 11.6496C14.9045 11.6956 15.0462 11.749 15.1879 11.8097C16.4331 12.3633 17.4313 13.3555 17.9922 14.5975Z" fill="#004C35"/>
</svg>
