<svg width="21" height="20" viewBox="0 0 21 20" fill="none" xmlns="http://www.w3.org/2000/svg">
<path d="M17.0695 16.9012H14.1012V12.2984C14.1012 11.2009 14.0814 9.78796 12.5573 9.78796C11.0113 9.78796 10.7748 10.9838 10.7748 12.2185V16.9009H7.80641V7.43576H10.656V8.72927H10.6959C10.9811 8.24647 11.3932 7.8493 11.8883 7.58006C12.3834 7.31081 12.943 7.17958 13.5075 7.20032C16.516 7.20032 17.0707 9.15973 17.0707 11.7088L17.0695 16.9012ZM4.45714 6.14194C4.11645 6.142 3.78339 6.04203 3.50008 5.85466C3.21677 5.6673 2.99595 5.40096 2.86552 5.08933C2.73508 4.77769 2.7009 4.43476 2.76731 4.10389C2.83371 3.77303 2.99772 3.46909 3.23858 3.23052C3.47945 2.99194 3.78635 2.82944 4.12048 2.76357C4.45461 2.6977 4.80096 2.73142 5.11575 2.86045C5.43053 2.98949 5.69959 3.20805 5.88892 3.4885C6.07825 3.76895 6.17934 4.0987 6.1794 4.43603C6.17944 4.66002 6.13492 4.88181 6.04839 5.08876C5.96186 5.29571 5.83502 5.48376 5.6751 5.64216C5.51517 5.80057 5.32529 5.92624 5.11631 6.01199C4.90734 6.09774 4.68335 6.1419 4.45714 6.14194ZM5.94131 16.9012H2.96988V7.43576H5.94131V16.9012ZM18.5493 0.00135143H1.4783C1.09083 -0.00297804 0.717465 0.145182 0.44027 0.413275C0.163074 0.681368 0.00472879 1.04746 0 1.4311V18.4041C0.00456695 18.788 0.16282 19.1543 0.440005 19.4227C0.717191 19.691 1.09064 19.8395 1.4783 19.8354H18.5493C18.9378 19.8402 19.3123 19.6922 19.5905 19.4238C19.8688 19.1555 20.0281 18.7887 20.0335 18.4041V1.42988C20.028 1.04547 19.8685 0.678966 19.5903 0.41088C19.312 0.142794 18.9376 -0.00494354 18.5493 0.000126304" fill="#2F3131"/>
</svg>
